<svg xmlns="http://www.w3.org/2000/svg" width="1440" viewBox="0 0 1440 810" height="810" version="1.0"><path fill="#CB6CE6" d="M 1159.191406 289.640625 L 1280.953125 -417.320312 L 1832.332031 41.59375 Z M 1159.191406 289.640625"/><path fill="#CB6CE6" d="M -29.332031 233.433594 C -152.355469 233.433594 -252.082031 333.160156 -252.082031 456.183594 C -252.082031 579.203125 -152.355469 678.933594 -29.332031 678.933594 C 93.6875 678.933594 193.417969 579.203125 193.417969 456.183594 C 193.417969 333.160156 93.6875 233.433594 -29.332031 233.433594"/><path fill="#38B6FF" d="M 136.488281 436.347656 C -63.992188 436.347656 -226.511719 598.867188 -226.511719 799.347656 C -226.511719 999.828125 -63.992188 1162.347656 136.488281 1162.347656 C 336.96875 1162.347656 499.488281 999.828125 499.488281 799.347656 C 499.488281 598.867188 336.96875 436.347656 136.488281 436.347656"/></svg>