<svg xmlns="http://www.w3.org/2000/svg" width="375" viewBox="0 0 375 375" height="375" version="1.0"><path fill="#38B6FF" d="M 193.179688 74.222656 C 136.226562 74.222656 90.054688 120.390625 90.054688 177.347656 C 90.054688 234.300781 136.226562 280.472656 193.179688 280.472656 C 250.132812 280.472656 296.304688 234.300781 296.304688 177.347656 C 296.304688 120.390625 250.132812 74.222656 193.179688 74.222656"/><path fill="#8C52FF" d="M 114.289062 219.027344 C 77.011719 219.027344 46.789062 249.25 46.789062 286.527344 C 46.789062 323.808594 77.011719 354.027344 114.289062 354.027344 C 151.566406 354.027344 181.789062 323.808594 181.789062 286.527344 C 181.789062 249.25 151.566406 219.027344 114.289062 219.027344"/><path fill="#59FF6A" d="M 260.679688 20.941406 C 223.402344 20.941406 193.179688 51.164062 193.179688 88.441406 C 193.179688 125.722656 223.402344 155.941406 260.679688 155.941406 C 297.960938 155.941406 328.179688 125.722656 328.179688 88.441406 C 328.179688 51.164062 297.960938 20.941406 260.679688 20.941406"/></svg>